<!DOCTYPE svg PUBLIC "-//W3C//DTD SVG 1.1//EN" "http://www.w3.org/Graphics/SVG/1.1/DTD/svg11.dtd">
<!-- Uploaded to: SVG Repo, www.svgrepo.com, Transformed by: SVG Repo Mixer Tools -->
<svg fill="#000000" width="800px" height="800px" viewBox="0 0 24 24" id="sticky-notes-3" data-name="Flat Color" xmlns="http://www.w3.org/2000/svg" class="icon flat-color">
<g id="SVGRepo_bgCarrier" stroke-width="0"/>
<g id="SVGRepo_tracerCarrier" stroke-linecap="round" stroke-linejoin="round"/>
<g id="SVGRepo_iconCarrier">
<path id="primary" d="M19,4H5A2,2,0,0,0,3,6V20a2,2,0,0,0,2,2h9a1,1,0,0,0,.71-.29l6-6A1,1,0,0,0,21,15V6A2,2,0,0,0,19,4Z" style="fill: #c2bdbd;"/>
<path id="secondary" d="M20.71,15.71l-6,6a1,1,0,0,1-.52.27l-1-4.95A1,1,0,0,1,14,15.85l3.13-.45L21,14.86A1,1,0,0,1,20.71,15.71ZM14,7V3a1,1,0,0,0-1-1H11a1,1,0,0,0-1,1V7a1,1,0,0,0,1,1h2A1,1,0,0,0,14,7Z" style="fill: #ba2c41;"/>
</g>
</svg>