<!DOCTYPE svg PUBLIC "-//W3C//DTD SVG 1.1//EN" "http://www.w3.org/Graphics/SVG/1.1/DTD/svg11.dtd">
<!-- Uploaded to: SVG Repo, www.svgrepo.com, Transformed by: SVG Repo Mixer Tools -->
<svg fill="#000000" width="800px" height="800px" viewBox="0 0 24 24" id="bill-dollar-left" data-name="Flat Color" xmlns="http://www.w3.org/2000/svg" class="icon flat-color">
<g id="SVGRepo_bgCarrier" stroke-width="0"/>
<g id="SVGRepo_tracerCarrier" stroke-linecap="round" stroke-linejoin="round"/>
<g id="SVGRepo_iconCarrier">
<path id="primary" d="M11,10A6,6,0,0,0,6,4.09V4A2,2,0,0,1,8,2H20a2,2,0,0,1,2,2V21a1,1,0,0,1-1.39.92l-1.95-.83-1.94.83a1,1,0,0,1-.78,0L14,21.09l-1.94.83a1,1,0,0,1-.78,0l-1.94-.83-1.94.83A1,1,0,0,1,7,22a1,1,0,0,1-.55-.17A1,1,0,0,1,6,21V15.91A6,6,0,0,0,11,10Z" style="fill: #c2bdbd;"/>
<path id="secondary" d="M8,11.5A2.5,2.5,0,0,1,6,14V14a1,1,0,0,1-2,0H3a1,1,0,0,1,0-2H5.5a.5.5,0,0,0,0-1h-1A2.5,2.5,0,0,1,4,6.05V6A1,1,0,0,1,6,6H7A1,1,0,0,1,7,8H4.5a.5.5,0,0,0,0,1h1A2.5,2.5,0,0,1,8,11.5ZM13,16h5a1,1,0,0,0,0-2H13a1,1,0,0,0,0,2Zm2-4h3a1,1,0,0,0,0-2H15a1,1,0,0,0,0,2Z" style="fill: #ba2c41;"/>
</g>
</svg>