<!DOCTYPE svg PUBLIC "-//W3C//DTD SVG 1.1//EN" "http://www.w3.org/Graphics/SVG/1.1/DTD/svg11.dtd">
<!-- Uploaded to: SVG Repo, www.svgrepo.com, Transformed by: SVG Repo Mixer Tools -->
<svg fill="#000000" width="800px" height="800px" viewBox="0 0 24 24" id="date-forward" data-name="Flat Color" xmlns="http://www.w3.org/2000/svg" class="icon flat-color">
<g id="SVGRepo_bgCarrier" stroke-width="0"/>
<g id="SVGRepo_tracerCarrier" stroke-linecap="round" stroke-linejoin="round"/>
<g id="SVGRepo_iconCarrier">
<path id="primary" d="M21,7H3A1,1,0,0,0,2,8V20a2,2,0,0,0,2,2H20a2,2,0,0,0,2-2V8A1,1,0,0,0,21,7Z" style="fill: #c2bdbd;"/>
<path id="secondary" d="M22,6V9H2V6A2,2,0,0,1,4,4H20A2,2,0,0,1,22,6Zm-4.45,7.17a1,1,0,0,0-1.38.28l-.8,1.19A5,5,0,0,0,6,17a1,1,0,0,0,2,0,3,3,0,0,1,3-3,3,3,0,0,1,2.55,1.46l-1.23-.41a1,1,0,1,0-.64,1.9l3,1A1.19,1.19,0,0,0,15,18a1,1,0,0,0,.83-.45l2-3A1,1,0,0,0,17.55,13.17Z" style="fill: #ba2c41;"/>
<path id="primary-2" data-name="primary" d="M16,7a1,1,0,0,1-1-1V3a1,1,0,0,1,2,0V6A1,1,0,0,1,16,7ZM9,6V3A1,1,0,0,0,7,3V6A1,1,0,0,0,9,6Z" style="fill: #c2bdbd;"/>
</g>
</svg>