<!DOCTYPE svg PUBLIC "-//W3C//DTD SVG 1.1//EN" "http://www.w3.org/Graphics/SVG/1.1/DTD/svg11.dtd">
<!-- Uploaded to: SVG Repo, www.svgrepo.com, Transformed by: SVG Repo Mixer Tools -->
<svg fill="#000000" width="800px" height="800px" viewBox="0 0 24 24" id="camera" data-name="Flat Color" xmlns="http://www.w3.org/2000/svg" class="icon flat-color">
<g id="SVGRepo_bgCarrier" stroke-width="0"/>
<g id="SVGRepo_tracerCarrier" stroke-linecap="round" stroke-linejoin="round"/>
<g id="SVGRepo_iconCarrier">
<path id="secondary" d="M19,6.76l-.5-2a1,1,0,0,0-1-.76h-3a1,1,0,0,0-1,.76l-.5,2a1,1,0,0,0,.18.86A1,1,0,0,0,14,8h4a1,1,0,0,0,.79-.38A1,1,0,0,0,19,6.76Z" style="fill: #ba2c41;"/>
<path id="primary" d="M20,6H11.62l-.45-.89A2,2,0,0,0,9.38,4H4A2,2,0,0,0,2,6V18a2,2,0,0,0,2,2H20a2,2,0,0,0,2-2V8A2,2,0,0,0,20,6Z" style="fill: #c2bdbd;"/>
<circle id="secondary-2" data-name="secondary" cx="12" cy="13" r="3" style="fill: #ba2c41;"/>
</g>
</svg>