<!DOCTYPE svg PUBLIC "-//W3C//DTD SVG 1.1//EN" "http://www.w3.org/Graphics/SVG/1.1/DTD/svg11.dtd">
<!-- Uploaded to: SVG Repo, www.svgrepo.com, Transformed by: SVG Repo Mixer Tools -->
<svg fill="#000000" width="800px" height="800px" viewBox="0 0 24 24" id="agenda" data-name="Flat Color" xmlns="http://www.w3.org/2000/svg" class="icon flat-color">
<g id="SVGRepo_bgCarrier" stroke-width="0"/>
<g id="SVGRepo_tracerCarrier" stroke-linecap="round" stroke-linejoin="round"/>
<g id="SVGRepo_iconCarrier">
<path id="secondary" d="M22,7V9a1,1,0,0,1-1,1H19a1,1,0,0,1-1-1V7a1,1,0,0,1,1-1h2A1,1,0,0,1,22,7Zm-1,5H19a1,1,0,0,0-1,1v2a1,1,0,0,0,1,1h2a1,1,0,0,0,1-1V13A1,1,0,0,0,21,12Z" style="fill: #ba2c41;"/>
<rect id="primary" x="3" y="2" width="17" height="20" rx="2" style="fill: #c2bdbd;"/>
<path id="secondary-2" data-name="secondary" d="M13,2H7V9a1,1,0,0,0,1.45.89L10,9.12l1.55.77A1,1,0,0,0,12,10a1,1,0,0,0,.53-.15A1,1,0,0,0,13,9Z" style="fill: #ba2c41;"/>
</g>
</svg>