<!DOCTYPE svg PUBLIC "-//W3C//DTD SVG 1.1//EN" "http://www.w3.org/Graphics/SVG/1.1/DTD/svg11.dtd">
<!-- Uploaded to: SVG Repo, www.svgrepo.com, Transformed by: SVG Repo Mixer Tools -->
<svg fill="#000000" width="800px" height="800px" viewBox="0 0 24 24" id="file-folder-document" data-name="Flat Color" xmlns="http://www.w3.org/2000/svg" class="icon flat-color">
<g id="SVGRepo_bgCarrier" stroke-width="0"/>
<g id="SVGRepo_tracerCarrier" stroke-linecap="round" stroke-linejoin="round"/>
<g id="SVGRepo_iconCarrier">
<path id="secondary" d="M6,2H18a2,2,0,0,1,2,2v7a1,1,0,0,1-1,1H5a1,1,0,0,1-1-1V4A2,2,0,0,1,6,2Z" style="fill: #ba2c41;"/>
<path id="primary" d="M4,8h9.59A2,2,0,0,1,15,8.59L16.41,10H20a2,2,0,0,1,2,2v8a2,2,0,0,1-2,2H4a2,2,0,0,1-2-2V10A2,2,0,0,1,4,8Z" style="fill: #c2bdbd;"/>
<path id="secondary-2" data-name="secondary" d="M6,17h4a1,1,0,0,1,0,2H6a1,1,0,0,1,0-2Z" style="fill: #ba2c41;"/>
</g>
</svg>