<!DOCTYPE svg PUBLIC "-//W3C//DTD SVG 1.1//EN" "http://www.w3.org/Graphics/SVG/1.1/DTD/svg11.dtd">
<!-- Uploaded to: SVG Repo, www.svgrepo.com, Transformed by: SVG Repo Mixer Tools -->
<svg fill="#000000" width="800px" height="800px" viewBox="0 0 24 24" id="ambulance-2" data-name="Flat Color" xmlns="http://www.w3.org/2000/svg" class="icon flat-color">
<g id="SVGRepo_bgCarrier" stroke-width="0"/>
<g id="SVGRepo_tracerCarrier" stroke-linecap="round" stroke-linejoin="round"/>
<g id="SVGRepo_iconCarrier">
<path id="primary" d="M16,7H14a1,1,0,0,1-1-1V5a2,2,0,0,1,4,0V6A1,1,0,0,1,16,7Z" style="fill: #c2bdbd;"/>
<path id="primary-2" data-name="primary" d="M21.56,10.11,18.08,5.76A2,2,0,0,0,16.52,5H4A2,2,0,0,0,2,7V17a2,2,0,0,0,2,2H20a2,2,0,0,0,2-2V11.35A2,2,0,0,0,21.56,10.11Z" style="fill: #c2bdbd;"/>
<path id="secondary" d="M22,11H14a1,1,0,0,1-1-1V5h3.52a2,2,0,0,1,1.56.76l3.48,4.35A1.92,1.92,0,0,1,22,11ZM7,15a3,3,0,1,0,3,3A3,3,0,0,0,7,15Zm10,0a3,3,0,1,0,3,3A3,3,0,0,0,17,15Z" style="fill: #ba2c41;"/>
</g>
</svg>